<svg xmlns="http://www.w3.org/2000/svg" xmlns:xlink="http://www.w3.org/1999/xlink" width="564" zoomAndPan="magnify" viewBox="0 0 422.88 213" height="284" preserveAspectRatio="xMidYMid meet" version="1.2"><defs><clipPath id="8df3c37908"><path d="M 343 11 L 422.761719 11 L 422.761719 33 L 343 33 Z M 343 11 "/></clipPath><clipPath id="a200f0a072"><path d="M 343 180 L 422.761719 180 L 422.761719 202 L 343 202 Z M 343 180 "/></clipPath></defs><g id="d7932009c4"><g clip-rule="nonzero" clip-path="url(#8df3c37908)"><path style="fill:none;stroke-width:19;stroke-linecap:butt;stroke-linejoin:miter;stroke:#5271ff;stroke-opacity:1;stroke-miterlimit:4;" d="M 0.0014942 9.500234 L 51.986495 9.500234 " transform="matrix(-1.107441,0,0,-1.107441,412.056342,32.743603)"/></g><path style="fill:none;stroke-width:19;stroke-linecap:butt;stroke-linejoin:miter;stroke:#5271ff;stroke-opacity:1;stroke-miterlimit:4;" d="M -0.0000212676 9.50168 L 51.988507 9.50168 " transform="matrix(0,-1.107441,1.107441,0,391.196202,69.453101)"/><path style="fill:none;stroke-width:18;stroke-linecap:butt;stroke-linejoin:miter;stroke:#5271ff;stroke-opacity:1;stroke-miterlimit:4;" d="M -0.000753179 9.000015 L 51.987775 9.000015 " transform="matrix(1.107441,0,0,1.107441,10.571147,180.990047)"/><path style="fill:none;stroke-width:18;stroke-linecap:butt;stroke-linejoin:miter;stroke:#5271ff;stroke-opacity:1;stroke-miterlimit:4;" d="M -0.000234878 9.000376 L 51.988293 9.000376 " transform="matrix(0,1.107441,-1.107441,0,30.87754,143.726823)"/><path style="fill:none;stroke-width:19;stroke-linecap:butt;stroke-linejoin:miter;stroke:#5271ff;stroke-opacity:1;stroke-miterlimit:4;" d="M -0.000607551 9.500378 L 51.98792 9.500378 " transform="matrix(0,1.107441,-1.107441,0,31.431263,11.883485)"/><path style="fill:none;stroke-width:19;stroke-linecap:butt;stroke-linejoin:miter;stroke:#5271ff;stroke-opacity:1;stroke-miterlimit:4;" d="M 0.00012566 9.500234 L 51.985126 9.500234 " transform="matrix(-1.107441,0,0,-1.107441,68.140764,32.743603)"/><path style="fill:none;stroke-width:19;stroke-linecap:butt;stroke-linejoin:miter;stroke:#5271ff;stroke-opacity:1;stroke-miterlimit:4;" d="M -0.000263732 9.499885 L 53.970594 9.499885 " transform="matrix(0,-1.107441,1.107441,0,392.998971,201.296583)"/><g clip-rule="nonzero" clip-path="url(#a200f0a072)"><path style="fill:none;stroke-width:19;stroke-linecap:butt;stroke-linejoin:miter;stroke:#5271ff;stroke-opacity:1;stroke-miterlimit:4;" d="M 0.00142181 9.50013 L 53.972279 9.50013 " transform="matrix(1.107441,0,0,1.107441,354.486707,180.041668)"/></g><g style="fill:#5271ff;fill-opacity:1;"><g transform="translate(61.150554, 141.848364)"><path style="stroke:none" d="M 22.203125 -59.953125 L 36.8125 -27.34375 L 51.421875 -59.953125 L 75.96875 -59.953125 L 43.828125 0 L 29.796875 0 L -2.34375 -59.953125 Z M 22.203125 -59.953125 "/></g></g><g style="fill:#5271ff;fill-opacity:1;"><g transform="translate(132.08995, 141.848364)"><path style="stroke:none" d="M 76.4375 0 L 51.421875 0 L 38.21875 -16.953125 L 25.015625 0 L 0 0 L 25.59375 -31.328125 L 3.625 -59.953125 L 27.8125 -59.953125 L 38.21875 -46.046875 L 48.625 -59.953125 L 72.8125 -59.953125 L 50.84375 -31.328125 Z M 76.4375 0 "/></g></g><g style="fill:#5271ff;fill-opacity:1;"><g transform="translate(205.834212, 141.848364)"><path style="stroke:none" d="M 11.09375 -7.421875 C 5.488281 -13.535156 2.6875 -21.035156 2.6875 -29.921875 C 2.6875 -38.804688 5.488281 -46.320312 11.09375 -52.46875 C 16.707031 -58.625 23.835938 -61.703125 32.484375 -61.703125 C 40.429688 -61.703125 46.976562 -59.210938 52.125 -54.234375 L 52.125 -100.515625 L 72.8125 -100.515625 L 72.8125 0 L 52.359375 0 L 52.359375 -6.78125 L 52.125 -6.78125 C 46.976562 -1.09375 40.429688 1.75 32.484375 1.75 C 23.835938 1.75 16.707031 -1.304688 11.09375 -7.421875 Z M 28.6875 -40.078125 C 26 -37.429688 24.65625 -34.039062 24.65625 -29.90625 C 24.65625 -25.78125 25.941406 -22.410156 28.515625 -19.796875 C 31.085938 -17.191406 34.476562 -15.890625 38.6875 -15.890625 C 42.738281 -15.890625 46.066406 -17.210938 48.671875 -19.859375 C 51.285156 -22.515625 52.59375 -25.867188 52.59375 -29.921875 C 52.59375 -34.046875 51.25 -37.429688 48.5625 -40.078125 C 45.875 -42.734375 42.582031 -44.0625 38.6875 -44.0625 C 34.707031 -44.0625 31.375 -42.734375 28.6875 -40.078125 Z M 28.6875 -40.078125 "/></g></g><g style="fill:#5271ff;fill-opacity:1;"><g transform="translate(282.967696, 141.848364)"><path style="stroke:none" d="M 10.515625 -59.953125 L 10.515625 -72.703125 C 10.597656 -81.660156 12.703125 -88.828125 16.828125 -94.203125 C 20.960938 -99.578125 26.691406 -102.265625 34.015625 -102.265625 C 37.128906 -102.265625 40.109375 -101.816406 42.953125 -100.921875 C 45.796875 -100.023438 47.84375 -99.109375 49.09375 -98.171875 L 51.078125 -96.890625 L 43.828125 -82.28125 C 41.953125 -83.375 39.890625 -83.921875 37.640625 -83.921875 C 35.066406 -83.921875 33.347656 -83.039062 32.484375 -81.28125 C 31.628906 -79.53125 31.203125 -76.472656 31.203125 -72.109375 L 31.203125 -59.953125 L 45 -59.953125 L 45 -44.171875 L 31.203125 -44.171875 L 31.203125 0 L 10.515625 0 L 10.515625 -44.171875 L 1.875 -44.171875 L 1.875 -59.953125 Z M 10.515625 -59.953125 "/></g></g></g></svg>